<mxfile host="app.diagrams.net" modified="2023-07-13T08:36:45.083Z" agent="Mozilla/5.0 (Macintosh; Intel Mac OS X 10_15_7) AppleWebKit/537.36 (KHTML, like Gecko) Chrome/114.0.0.0 Safari/537.36" version="21.6.2" etag="PmYocelD265H4gBAxZ7g" type="github">
  <diagram name="第 1 页" id="JTP_TphxvL8e3fdHrhSc">
    <mxGraphModel>
      <root>
        <mxCell id="0" />
        <mxCell id="1" parent="0" />
      </root>
    </mxGraphModel>
  </diagram>
</mxfile>
